<svg width="32" height="32" viewBox="0 0 32 32" fill="none" xmlns="http://www.w3.org/2000/svg">
  <!-- Background -->
  <rect width="32" height="32" rx="7" fill="#1a162e"/>
  <!-- Left page -->
  <path d="M16 7 C12.5 7 8 8.5 6.5 9.5 L6.5 21.5 C8 20.5 12.5 19 16 19 Z" fill="#ff6b6b"/>
  <!-- Right page -->
  <path d="M16 7 C19.5 7 24 8.5 25.5 9.5 L25.5 21.5 C24 20.5 19.5 19 16 19 Z" fill="#ff6b6b" opacity="0.6"/>
  <!-- Spine -->
  <line x1="16" y1="7" x2="16" y2="19" stroke="#1a162e" stroke-width="1.5" stroke-linecap="round"/>
  <!-- Top open arc -->
  <path d="M6.5 9.5 C9 8 12.5 7 16 7 C19.5 7 23 8 25.5 9.5" stroke="#ffd93d" stroke-width="1.5" fill="none" stroke-linecap="round"/>
  <!-- Bottom cover -->
  <path d="M6.5 21.5 Q11 20 16 21.5 Q21 23 25.5 21.5" stroke="#ff6b6b" stroke-width="1.5" fill="none" stroke-linecap="round" opacity="0.5"/>
</svg>
