<svg width="512" height="512" fill="none" xmlns="http://www.w3.org/2000/svg">
  <rect width="512" height="512" rx="96" fill="#1a162e"/>
  <path d="M256 130 C196 130 132 150 112 164 L112 356 C132 342 196 326 256 326 C316 326 380 342 400 356 L400 164 C380 150 316 130 256 130Z" fill="#2a2548"/>
  <path d="M112 164 C132 150 196 130 256 130 C316 130 380 150 400 164" stroke="#ff6b6b" stroke-width="5" fill="none" stroke-linecap="round"/>
  <path d="M112 356 C132 342 196 326 256 326 C316 326 380 342 400 356" stroke="#ff6b6b" stroke-width="4" fill="none" stroke-linecap="round" opacity="0.5"/>
  <line x1="256" y1="130" x2="256" y2="326" stroke="#ff6b6b" stroke-width="4" stroke-linecap="round"/>
  <line x1="148" y1="196" x2="232" y2="186" stroke="#ff6b6b" stroke-width="3" stroke-linecap="round" opacity="0.35"/>
  <line x1="148" y1="228" x2="232" y2="218" stroke="#ff6b6b" stroke-width="3" stroke-linecap="round" opacity="0.35"/>
  <line x1="148" y1="260" x2="232" y2="250" stroke="#ff6b6b" stroke-width="3" stroke-linecap="round" opacity="0.35"/>
  <line x1="148" y1="292" x2="200" y2="285" stroke="#ff6b6b" stroke-width="3" stroke-linecap="round" opacity="0.35"/>
  <line x1="280" y1="186" x2="364" y2="196" stroke="#6bcf7f" stroke-width="3" stroke-linecap="round" opacity="0.35"/>
  <line x1="280" y1="218" x2="364" y2="228" stroke="#6bcf7f" stroke-width="3" stroke-linecap="round" opacity="0.35"/>
  <line x1="280" y1="250" x2="364" y2="260" stroke="#6bcf7f" stroke-width="3" stroke-linecap="round" opacity="0.35"/>
  <line x1="280" y1="285" x2="332" y2="290" stroke="#6bcf7f" stroke-width="3" stroke-linecap="round" opacity="0.35"/>
  <path d="M140 384 Q200 372 256 384 Q312 396 372 384" stroke="#ff6b6b" stroke-width="4" fill="none" stroke-linecap="round" opacity="0.5"/>
  <path d="M164 406 Q220 394 256 406 Q292 418 348 406" stroke="#6bcf7f" stroke-width="3" fill="none" stroke-linecap="round" opacity="0.35"/>
</svg>
